<?xml version="1.0" encoding="iso-8859-1"?>
<!-- Uploaded to: SVG Repo, www.svgrepo.com, Generator: SVG Repo Mixer Tools -->
<svg version="1.1" id="Layer_1" xmlns="http://www.w3.org/2000/svg" xmlns:xlink="http://www.w3.org/1999/xlink" 
	 viewBox="0 0 512 512" xml:space="preserve">
<path style="fill:#D5A940;" d="M160.396,95.869c-83.833,0-151.793,67.959-151.793,151.793c0,17.041,2.808,33.426,7.987,48.717
	l14.707,31.162c26.765,43.164,74.575,71.913,129.099,71.913c83.832,0,151.793-67.959,151.793-151.793
	C312.188,163.829,244.228,95.869,160.396,95.869z M160.396,367.498c-66.184,0-119.836-53.653-119.836-119.836
	s53.653-119.836,119.836-119.836s119.836,53.653,119.836,119.836C280.232,313.845,226.579,367.498,160.396,367.498z"/>
<path style="fill:#C9961A;" d="M160.847,367.498c-64.652,0-119.836-53.653-119.836-119.836S94.11,127.826,160.847,127.826V95.869
	c-84.464,0-151.793,67.959-151.793,151.793c0,83.832,71.5,151.793,151.793,151.793V367.498z"/>
<polyline style="fill:#00FFFF;" points="334.557,134.217 296.209,85.155 315.384,55.267 372.905,55.267 392.078,85.155 
	353.732,133.653 "/>
<polyline style="fill:#00BFBF;" points="334.557,134.217 296.209,85.155 315.384,55.267 344.144,55.267 328.166,87.552 
	353.732,133.653 "/>
<path style="fill:#D5A940;" d="M344.144,159.782c-83.832,0-151.793,67.96-151.793,151.793c0,17.041,2.808,33.426,7.987,48.717
	l14.707,31.162c26.765,43.164,74.575,71.913,129.099,71.913c83.832,0,151.793-67.959,151.793-151.793
	S427.977,159.782,344.144,159.782z M344.144,431.411c-66.184,0-119.836-53.653-119.836-119.836s53.653-119.836,119.836-119.836
	S463.98,245.39,463.98,311.574C463.98,377.758,410.328,431.411,344.144,431.411z"/>
<path style="fill:#EACE76;" d="M344.375,191.738c65.695,0,119.836,53.653,119.836,119.836s-54.142,119.836-119.836,119.836v31.957
	c83.422,0,151.793-67.959,151.793-151.793s-68.371-151.793-151.793-151.793V191.738z"/>
<path d="M344.144,151.961c-17.568,0-34.477,2.86-50.298,8.127c-13.873-21.093-32.678-38.76-54.624-51.247
	c-23.907-13.603-51.165-20.793-78.827-20.793c-88.011,0-159.613,71.603-159.613,159.613c0,88.011,71.602,159.614,159.613,159.614
	c17.566,0,34.477-2.86,50.298-8.127c13.874,21.093,32.678,38.76,54.624,51.247c23.907,13.603,51.165,20.793,78.827,20.793
	c88.011,0,159.613-71.602,159.613-159.613C503.758,223.564,432.156,151.961,344.144,151.961z M16.424,247.661
	c0-79.386,64.585-143.971,143.971-143.971c47.793,0,91.57,23.134,118.512,62.222c-5.026,2.26-9.914,4.774-14.649,7.523
	c-23.982-33.588-62.274-53.429-103.863-53.429c-70.39,0-127.657,57.267-127.657,127.657s57.267,127.657,127.657,127.657
	s127.657-57.267,127.657-127.657c0-10.406-1.265-20.729-3.74-30.743c4.706-2.985,9.649-5.627,14.792-7.895
	c3.482,12.525,5.263,25.486,5.263,38.637c0,79.386-64.586,143.972-143.971,143.972S16.424,327.048,16.424,247.661z M251.125,181.946
	c-40.3,29-66.594,76.299-66.594,129.629c0,14.965,2.067,29.711,6.136,43.943c-9.633,2.707-19.786,4.16-30.272,4.16
	c-61.765,0-112.015-50.25-112.015-112.015s50.25-112.015,112.015-112.015C196.647,135.647,230.053,152.824,251.125,181.946z
	 M232.129,311.574c0-33.613,14.885-63.811,38.404-84.36c1.238,6.716,1.877,13.559,1.877,20.448c0,33.612-14.885,63.811-38.404,84.36
	C232.768,325.306,232.129,318.463,232.129,311.574z M313.877,203.717c9.632-2.706,19.782-4.158,30.267-4.158
	c61.765,0,112.015,50.25,112.015,112.015S405.91,423.59,344.144,423.59c-36.251,0-69.658-17.178-90.73-46.3
	c40.3-29,66.594-76.299,66.594-129.629C320.008,232.7,317.946,217.949,313.877,203.717z M344.144,455.546
	c-47.793,0-91.57-23.135-118.513-62.222c5.026-2.26,9.914-4.774,14.649-7.523c23.982,33.587,62.276,53.429,103.864,53.429
	c70.39,0,127.657-57.267,127.657-127.657s-57.267-127.657-127.657-127.657s-127.657,57.267-127.657,127.657
	c0,10.407,1.265,20.729,3.74,30.742c-4.71,2.988-9.657,5.631-14.806,7.901c-3.482-12.526-5.249-25.488-5.249-38.643
	c0-79.386,64.586-143.972,143.972-143.972s143.971,64.586,143.971,143.972C488.116,390.961,423.53,455.546,344.144,455.546z"/>
<path d="M401.693,85.877l-24.533-37.91h-66.03l-24.521,37.888l32.503,41.363h-15.405v15.642H384v-15.642h-15.084L401.693,85.877z
	 M314.422,95.935h21.61V80.293H308.84l10.798-16.684h49.012l10.798,16.684h-27.774v15.642h22.084l-24.802,31.283h-9.951
	L314.422,95.935z"/>
<polygon style="fill:#FCCB00;" points="471.593,127.218 455.951,127.218 455.951,112.619 440.31,112.619 440.31,127.218 
	423.625,127.218 423.625,142.859 440.31,142.859 440.31,159.544 455.951,159.544 455.951,142.859 471.593,142.859 "/>
<rect x="40.929" y="32.326" style="fill:#EACE76;" width="15.642" height="15.642"/>
<g>
	<rect x="63.87" y="32.326" style="fill:#9BA1A8;" width="25.026" height="15.642"/>
	<rect x="8.603" y="32.326" style="fill:#9BA1A8;" width="23.984" height="15.642"/>
	<rect x="40.929" y="55.267" style="fill:#9BA1A8;" width="15.642" height="25.026"/>
	<rect x="40.929" style="fill:#9BA1A8;" width="15.642" height="23.984"/>
</g>
<rect x="80.554" y="64.652" style="fill:#EACE76;" width="15.642" height="15.642"/>
<rect x="471.593" y="80.293" style="fill:#9BA1A8;" width="16.684" height="15.642"/>
<g>
	<rect x="423.625" y="56.31" style="fill:#FCCB00;" width="16.684" height="15.642"/>
	<polygon style="fill:#FCCB00;" points="152.505,216.896 135.821,216.896 135.821,200.212 120.179,200.212 120.179,216.896 
		104.538,216.896 104.538,232.538 120.179,232.538 120.179,247.136 135.821,247.136 135.821,232.538 152.505,232.538 	"/>
</g>
<rect x="88.896" y="263.821" style="fill:#9BA1A8;" width="15.642" height="15.642"/>
<rect x="135.821" y="287.805" style="fill:#EACE76;" width="16.684" height="15.642"/>
<polygon style="fill:#9BA1A8;" points="384,279.462 368.358,279.462 368.358,262.778 352.717,262.778 352.717,279.462 
	336.033,279.462 336.033,295.104 352.717,295.104 352.717,311.788 368.358,311.788 368.358,295.104 384,295.104 "/>
<rect x="391.299" y="247.136" style="fill:#EACE76;" width="16.684" height="15.642"/>
<rect x="368.358" y="327.43" style="fill:#FCCB00;" width="15.642" height="15.642"/>
<rect x="495.576" y="200.212" style="fill:#EACE76;" width="15.642" height="15.642"/>
<rect x="121.222" y="7.299" style="fill:#FCCB00;" width="14.599" height="15.642"/>
<rect x="135.821" y="464.033" style="fill:#EACE76;" width="16.684" height="15.642"/>
<g>
	<rect x="104.538" y="464.033" style="fill:#FCCB00;" width="23.984" height="15.642"/>
	<rect x="160.847" y="464.033" style="fill:#FCCB00;" width="22.941" height="15.642"/>
	<rect x="135.821" y="431.707" style="fill:#FCCB00;" width="15.642" height="22.941"/>
	<rect x="135.821" y="486.974" style="fill:#FCCB00;" width="15.642" height="25.026"/>
</g>
<rect x="96.196" y="431.707" style="fill:#9BA1A8;" width="16.684" height="15.642"/>
<rect x="56.57" y="486.974" style="fill:#EACE76;" width="16.684" height="15.642"/>
</svg>